<svg width="346" height="346" viewBox="0 0 346 346" fill="none" xmlns="http://www.w3.org/2000/svg">
    <path d="M13.3059 0.777344L24.1312 19.5273H2.48059L13.3059 0.777344Z" fill="#EEEEEE"/>
    <path d="M13.3059 80.7773L24.1312 99.5273H2.48059L13.3059 80.7773Z" fill="#EEEEEE"/>
    <path d="M13.3059 160.777L24.1312 179.527H2.48059L13.3059 160.777Z" fill="#EEEEEE"/>
    <path d="M13.3059 240.777L24.1312 259.527H2.48059L13.3059 240.777Z" fill="#EEEEEE"/>
    <path d="M13.3059 320.777L24.1312 339.527H2.48059L13.3059 320.777Z" fill="#EEEEEE"/>
    <path d="M93.3059 0.777344L104.131 19.5273H82.4806L93.3059 0.777344Z" fill="#EEEEEE"/>
    <path d="M93.3059 80.7773L104.131 99.5273H82.4806L93.3059 80.7773Z" fill="#EEEEEE"/>
    <path d="M93.3059 160.777L104.131 179.527H82.4806L93.3059 160.777Z" fill="#EEEEEE"/>
    <path d="M93.3059 240.777L104.131 259.527H82.4806L93.3059 240.777Z" fill="#EEEEEE"/>
    <path d="M93.3059 320.777L104.131 339.527H82.4806L93.3059 320.777Z" fill="#EEEEEE"/>
    <path d="M173.306 0.777344L184.131 19.5273H162.481L173.306 0.777344Z" fill="#EEEEEE"/>
    <path d="M173.306 80.7773L184.131 99.5273H162.481L173.306 80.7773Z" fill="#EEEEEE"/>
    <path d="M173.306 160.777L184.131 179.527H162.481L173.306 160.777Z" fill="#EEEEEE"/>
    <path d="M173.306 240.777L184.131 259.527H162.481L173.306 240.777Z" fill="#EEEEEE"/>
    <path d="M173.306 320.777L184.131 339.527H162.481L173.306 320.777Z" fill="#EEEEEE"/>
    <path d="M253.306 0.777344L264.131 19.5273H242.481L253.306 0.777344Z" fill="#EEEEEE"/>
    <path d="M253.306 80.7773L264.131 99.5273H242.481L253.306 80.7773Z" fill="#EEEEEE"/>
    <path d="M253.306 160.777L264.131 179.527H242.481L253.306 160.777Z" fill="#EEEEEE"/>
    <path d="M253.306 240.777L264.131 259.527H242.481L253.306 240.777Z" fill="#EEEEEE"/>
    <path d="M253.306 320.777L264.131 339.527H242.481L253.306 320.777Z" fill="#EEEEEE"/>
    <path d="M333.306 0.777344L344.131 19.5273H322.481L333.306 0.777344Z" fill="#EEEEEE"/>
    <path d="M333.306 80.7773L344.131 99.5273H322.481L333.306 80.7773Z" fill="#EEEEEE"/>
    <path d="M333.306 160.777L344.131 179.527H322.481L333.306 160.777Z" fill="#EEEEEE"/>
    <path d="M333.306 240.777L344.131 259.527H322.481L333.306 240.777Z" fill="#EEEEEE"/>
    <path d="M333.306 320.777L344.131 339.527H322.481L333.306 320.777Z" fill="#EEEEEE"/>
</svg>
